<svg width="14" height="14" viewBox="0 0 14 14" fill="none" xmlns="http://www.w3.org/2000/svg">
<path d="M0.293701 6.29365C-0.0969238 6.68428 -0.0969238 7.31865 0.293701 7.70928L5.2937 12.7093C5.68433 13.0999 6.3187 13.0999 6.70933 12.7093C7.09995 12.3187 7.09995 11.6843 6.70933 11.2937L2.41558 6.9999L6.7062 2.70615C7.09683 2.31553 7.09683 1.68115 6.7062 1.29053C6.31558 0.899902 5.6812 0.899902 5.29058 1.29053L0.290576 6.29053L0.293701 6.29365ZM11.2937 1.29365L6.2937 6.29365C5.90308 6.68428 5.90308 7.31865 6.2937 7.70928L11.2937 12.7093C11.6843 13.0999 12.3187 13.0999 12.7093 12.7093C13.1 12.3187 13.1 11.6843 12.7093 11.2937L8.41558 6.9999L12.7062 2.70615C13.0968 2.31553 13.0968 1.68115 12.7062 1.29053C12.3156 0.899902 11.6812 0.899902 11.2906 1.29053L11.2937 1.29365Z" fill="#72889D"/>
</svg>
