<svg width="14" height="14" viewBox="0 0 14 14" fill="none" xmlns="http://www.w3.org/2000/svg">
<path d="M13.7062 7.70615C14.0968 7.31553 14.0968 6.68115 13.7062 6.29053L8.70615 1.29053C8.31553 0.899902 7.68115 0.899902 7.29053 1.29053C6.8999 1.68115 6.8999 2.31553 7.29053 2.70615L11.5843 6.9999L7.29365 11.2937C6.90303 11.6843 6.90303 12.3187 7.29365 12.7093C7.68428 13.0999 8.31865 13.0999 8.70928 12.7093L13.7093 7.70928L13.7062 7.70615ZM2.70615 12.7062L7.70615 7.70615C8.09678 7.31553 8.09678 6.68115 7.70615 6.29053L2.70615 1.29053C2.31553 0.899902 1.68115 0.899902 1.29053 1.29053C0.899902 1.68115 0.899902 2.31553 1.29053 2.70615L5.58428 6.9999L1.29365 11.2937C0.903027 11.6843 0.903027 12.3187 1.29365 12.7093C1.68428 13.0999 2.31865 13.0999 2.70928 12.7093L2.70615 12.7062Z" fill="#72889D"/>
</svg>
