<svg width="256" height="78" viewBox="0 0 256 78" fill="none" xmlns="http://www.w3.org/2000/svg">
<g clip-path="url(#clip0_530_42170)">
<path d="M199.78 21.8101H188.93V58.0001H199.78V21.8101Z" fill="#0F2AA8"/>
<path d="M213.1 21.09H213.03C206.7 21.09 201.57 26.22 201.57 32.55V32.62H213.09V21.1H213.1V21.09Z" fill="#0F2AA8"/>
<path d="M31.71 26.51C34.44 23.42 38.54 21.04 43.65 21.04C51.42 21.04 56.67 26.36 56.67 34.2V58H45.74V37.29C45.74 33.48 43.58 30.82 39.99 30.82C36.03 30.82 33.81 33.84 33.81 38.16V58.01H22.88V37.3C22.88 33.49 20.79 30.83 17.13 30.83C13.18 30.83 10.95 33.85 10.95 38.17V58.02H0V21.9H10.93V26C13.02 23.19 16.61 21.04 21.21 21.04C25.81 21.04 29.55 23.13 31.71 26.51Z" fill="#0F2AA8"/>
<path d="M80.62 21.04C91.12 21.04 100.04 29.1 100.04 39.95C100.04 50.8 91.12 58.86 80.62 58.86C70.12 58.86 61.13 50.8 61.13 39.95C61.13 29.1 70.12 21.04 80.62 21.04ZM80.62 49.45C85.87 49.45 89.83 45.35 89.83 39.96C89.83 34.57 85.88 30.47 80.62 30.47C75.36 30.47 71.34 34.57 71.34 39.96C71.34 45.35 75.29 49.45 80.62 49.45Z" fill="#0F2AA8"/>
<path d="M126.78 21.04C121.82 21.04 117.72 23.41 115.63 26.22V10.62H115.62C115.49 4.73 110.69 0 104.77 0H104.71V58H115.64V53.69C117.73 56.49 121.82 58.87 126.79 58.87C136.64 58.87 144.63 50.74 144.63 39.96C144.63 29.18 136.65 21.05 126.79 21.05H126.78V21.04ZM124.55 49.44C119.23 49.44 115.27 45.34 115.27 39.95C115.27 34.56 119.23 30.46 124.55 30.46C129.87 30.46 133.76 34.56 133.76 39.95C133.76 45.34 129.8 49.44 124.55 49.44Z" fill="#0F2AA8"/>
<path d="M175.03 44.7001L182.72 50.0201C179.27 55.7001 173.3 58.87 166.32 58.87C156.11 58.87 147.41 50.81 147.41 39.96C147.41 29.11 156.11 21.05 166.04 21.05C177.83 21.05 184.81 30.4 184.09 42.91H157.55C158.63 47.37 162.15 49.96 166.32 49.96C170.49 49.96 172.94 47.95 175.02 44.71L175.03 44.7001ZM157.92 36.0601H173.74C173.24 32.9701 170.79 29.88 166.12 29.88C162.45 29.88 159.22 32.1801 157.92 36.0601Z" fill="#0F2AA8"/>
<path d="M235.57 76.8501C225.43 76.8501 216.87 70.7401 216.44 60.8901H227.23C227.66 65.2801 231.04 67.9401 235.72 67.9401C240.83 67.9401 244.71 64.6301 244.71 58.3001V53.7001C242.55 56.5001 238.45 58.8801 233.49 58.8801C223.64 58.8801 215.65 50.7501 215.65 39.9701C215.65 29.1901 223.63 21.0601 233.49 21.0601C238.45 21.0601 242.55 23.4301 244.71 26.2401V21.9301H255.64V57.8601C255.64 69.5801 246.22 76.8501 235.58 76.8501H235.57ZM235.79 49.4501C241.04 49.4501 245 45.3501 245 39.9601C245 34.5701 241.04 30.4701 235.79 30.4701C230.54 30.4701 226.51 34.5701 226.51 39.9601C226.51 45.3501 230.47 49.4501 235.79 49.4501Z" fill="#0F2AA8"/>
<path d="M0.369995 75.94L1.1 74.77C1.37 74.98 1.63 75.15 1.87 75.29C2.11 75.43 2.37 75.53 2.62 75.6C2.87 75.67 3.13 75.7 3.39 75.7C3.72 75.7 4.01 75.65 4.26 75.55C4.51 75.45 4.7 75.3 4.83 75.12C4.97 74.94 5.03 74.72 5.03 74.48C5.03 74.2 4.95 73.98 4.78 73.79C4.61 73.61 4.4 73.45 4.13 73.31C3.86 73.18 3.58 73.05 3.27 72.92C2.99 72.8 2.71 72.68 2.42 72.54C2.14 72.4 1.88 72.24 1.64 72.05C1.41 71.86 1.22 71.63 1.08 71.37C0.939995 71.11 0.869995 70.78 0.869995 70.4C0.869995 69.91 0.989995 69.48 1.24 69.11C1.49 68.74 1.83 68.46 2.27 68.26C2.71 68.06 3.21 67.96 3.77 67.96C4.17 67.96 4.56999 68.01 4.99 68.11C5.41 68.21 5.82 68.37 6.23 68.58L5.62 69.82C5.33999 69.66 5.04999 69.53 4.74 69.44C4.43 69.35 4.13 69.3 3.85 69.3C3.57 69.3 3.32999 69.34 3.10999 69.43C2.89999 69.52 2.73 69.64 2.62 69.8C2.5 69.96 2.44 70.15 2.44 70.36C2.44 70.61 2.51999 70.83 2.68 71C2.84 71.17 3.03999 71.33 3.29999 71.46C3.55999 71.59 3.83 71.72 4.12 71.85C4.41 71.98 4.7 72.11 5 72.26C5.3 72.41 5.56 72.58 5.8 72.77C6.04 72.97 6.24 73.2 6.38 73.48C6.52 73.76 6.6 74.09 6.6 74.47C6.6 74.97 6.47 75.42 6.21 75.8C5.95 76.18 5.58 76.48 5.11 76.69C4.64 76.9 4.08 77.01 3.45 77.01C2.88 77.01 2.34 76.92 1.82 76.74C1.3 76.56 0.819995 76.29 0.369995 75.93V75.94Z" fill="#0F2AA8"/>
<path d="M11.87 76.8499V68.1299H17.4V69.4799H13.4V71.7799H17.16V73.1199H13.4V75.4999H17.45V76.8499H11.86H11.87Z" fill="#0F2AA8"/>
<path d="M29.77 76.8499H28.07L26.16 73.5699H24.51V76.8499H22.97V68.1299H26.19C26.87 68.1299 27.45 68.2399 27.93 68.4599C28.41 68.6799 28.78 68.9899 29.04 69.3899C29.3 69.7899 29.43 70.2799 29.43 70.8499C29.43 71.4499 29.28 71.9699 28.98 72.3899C28.68 72.8099 28.26 73.1199 27.71 73.3099L29.77 76.8499ZM24.5 72.3099H26.07C26.63 72.3099 27.07 72.1899 27.38 71.9399C27.69 71.6899 27.85 71.3399 27.85 70.8899C27.85 70.4399 27.69 70.0899 27.38 69.8399C27.07 69.5899 26.63 69.4699 26.07 69.4699H24.5V72.3099Z" fill="#0F2AA8"/>
<path d="M36.4 76.8499H34.86V68.1299H36.4V76.8499Z" fill="#0F2AA8"/>
<path d="M46.2 77.0199C45.54 77.0199 44.93 76.9099 44.38 76.6799C43.82 76.4599 43.34 76.1399 42.93 75.7299C42.52 75.3199 42.2 74.8399 41.97 74.2899C41.74 73.7399 41.63 73.1399 41.63 72.4799C41.63 71.8199 41.74 71.2199 41.97 70.6699C42.2 70.1199 42.52 69.6399 42.93 69.2299C43.34 68.8199 43.82 68.4999 44.38 68.2799C44.94 68.0599 45.55 67.9399 46.21 67.9399C46.87 67.9399 47.48 68.0499 48.03 68.2799C48.58 68.5099 49.07 68.8199 49.48 69.2299C49.89 69.6399 50.21 70.1199 50.43 70.6699C50.65 71.2199 50.77 71.8199 50.77 72.4799C50.77 73.1399 50.66 73.7299 50.43 74.2899C50.2 74.8399 49.89 75.3199 49.48 75.7299C49.07 76.1399 48.59 76.4599 48.03 76.6799C47.47 76.8999 46.87 77.0199 46.2 77.0199ZM46.2 75.6699C46.63 75.6699 47.03 75.5899 47.39 75.4299C47.75 75.2699 48.07 75.0499 48.34 74.7599C48.61 74.4699 48.82 74.1299 48.97 73.7499C49.12 73.3699 49.19 72.9399 49.19 72.4899C49.19 72.0399 49.12 71.6199 48.97 71.2299C48.82 70.8399 48.61 70.4999 48.34 70.2199C48.07 69.9299 47.75 69.7099 47.39 69.5499C47.03 69.3899 46.63 69.3099 46.2 69.3099C45.77 69.3099 45.38 69.3899 45.01 69.5499C44.64 69.7099 44.33 69.9299 44.06 70.2199C43.79 70.5099 43.58 70.8499 43.43 71.2299C43.28 71.6099 43.2 72.0399 43.2 72.4899C43.2 72.9399 43.28 73.3699 43.43 73.7499C43.58 74.1299 43.79 74.4799 44.06 74.7599C44.33 75.0399 44.65 75.2699 45.01 75.4299C45.37 75.5899 45.77 75.6699 46.2 75.6699Z" fill="#0F2AA8"/>
<path d="M63.51 68.1299V72.9399C63.51 73.7799 63.36 74.5099 63.06 75.1299C62.76 75.7399 62.33 76.2099 61.77 76.5399C61.21 76.8699 60.53 77.0299 59.75 77.0299C58.97 77.0299 58.3 76.8699 57.74 76.5399C57.18 76.2099 56.75 75.7399 56.45 75.1299C56.15 74.5199 56 73.7899 56 72.9399V68.1299H57.54V72.7699C57.54 73.3999 57.63 73.9399 57.8 74.3699C57.97 74.7999 58.22 75.1299 58.55 75.3499C58.88 75.5699 59.29 75.6799 59.76 75.6799C60.23 75.6799 60.65 75.5699 60.98 75.3499C61.31 75.1299 61.56 74.7999 61.73 74.3699C61.9 73.9399 61.99 73.3999 61.99 72.7699V68.1299H63.53H63.51Z" fill="#0F2AA8"/>
<path d="M68.66 75.94L69.39 74.77C69.66 74.98 69.92 75.15 70.16 75.29C70.4 75.43 70.66 75.53 70.91 75.6C71.16 75.67 71.42 75.7 71.68 75.7C72.01 75.7 72.3 75.65 72.55 75.55C72.8 75.45 72.99 75.3 73.12 75.12C73.26 74.94 73.32 74.72 73.32 74.48C73.32 74.2 73.24 73.98 73.07 73.79C72.9 73.61 72.69 73.45 72.42 73.31C72.15 73.18 71.87 73.05 71.56 72.92C71.28 72.8 71 72.68 70.71 72.54C70.43 72.4 70.17 72.24 69.93 72.05C69.7 71.86 69.51 71.63 69.37 71.37C69.23 71.11 69.16 70.78 69.16 70.4C69.16 69.91 69.28 69.48 69.53 69.11C69.78 68.74 70.12 68.46 70.56 68.26C71 68.06 71.5 67.96 72.06 67.96C72.46 67.96 72.86 68.01 73.28 68.11C73.7 68.21 74.11 68.37 74.52 68.58L73.91 69.82C73.63 69.66 73.34 69.53 73.03 69.44C72.72 69.35 72.42 69.3 72.14 69.3C71.86 69.3 71.62 69.34 71.4 69.43C71.19 69.52 71.02 69.64 70.91 69.8C70.79 69.96 70.73 70.15 70.73 70.36C70.73 70.61 70.81 70.83 70.97 71C71.13 71.17 71.33 71.33 71.59 71.46C71.85 71.59 72.12 71.72 72.41 71.85C72.7 71.98 72.99 72.11 73.29 72.26C73.59 72.41 73.85 72.58 74.09 72.77C74.33 72.97 74.53 73.2 74.67 73.48C74.81 73.76 74.89 74.09 74.89 74.47C74.89 74.97 74.76 75.42 74.5 75.8C74.24 76.18 73.87 76.48 73.4 76.69C72.93 76.9 72.37 77.01 71.74 77.01C71.17 77.01 70.63 76.92 70.11 76.74C69.59 76.56 69.11 76.29 68.66 75.93V75.94Z" fill="#0F2AA8"/>
<path d="M86.95 76.8499V68.1299H92.48V69.4799H88.48V71.7799H92.24V73.1199H88.48V75.4999H92.53V76.8499H86.94H86.95Z" fill="#0F2AA8"/>
<path d="M105.86 76.8499H104.13L99.58 70.4999V76.8499H98.04V68.1299H99.77L104.32 74.4799V68.1299H105.86V76.8499Z" fill="#0F2AA8"/>
<path d="M117.82 70.1599C117.54 69.8799 117.22 69.6699 116.83 69.5299C116.44 69.3899 116.04 69.3099 115.61 69.3099C115.18 69.3099 114.77 69.3899 114.41 69.5399C114.05 69.6899 113.73 69.9099 113.47 70.1899C113.21 70.4699 113 70.7999 112.86 71.1899C112.72 71.5799 112.65 71.9999 112.65 72.4699C112.65 72.9399 112.72 73.3799 112.87 73.7699C113.02 74.1599 113.22 74.4999 113.49 74.7899C113.76 75.0799 114.07 75.2999 114.44 75.4499C114.81 75.5999 115.21 75.6799 115.64 75.6799C116.02 75.6799 116.37 75.6199 116.69 75.4999C117.01 75.3799 117.29 75.2099 117.53 74.9899C117.77 74.7699 117.97 74.4999 118.13 74.1799C118.29 73.8699 118.39 73.5199 118.44 73.1299H115.68V71.9399H119.79L119.83 72.5199C119.83 73.1799 119.73 73.7899 119.52 74.3399C119.32 74.8899 119.03 75.3599 118.65 75.7599C118.27 76.1599 117.83 76.4699 117.31 76.6899C116.79 76.9099 116.22 77.0199 115.6 77.0199C114.98 77.0199 114.36 76.9099 113.81 76.6799C113.26 76.4499 112.78 76.1299 112.37 75.7199C111.96 75.3099 111.64 74.8299 111.42 74.2799C111.19 73.7299 111.08 73.1299 111.08 72.4799C111.08 71.8299 111.19 71.2399 111.42 70.6899C111.65 70.1399 111.96 69.6599 112.37 69.2399C112.78 68.8199 113.25 68.5099 113.8 68.2799C114.35 68.0499 114.94 67.9399 115.58 67.9399C116.22 67.9399 116.77 68.0399 117.33 68.2499C117.89 68.4599 118.38 68.7599 118.82 69.1499L117.82 70.1399V70.1599Z" fill="#0F2AA8"/>
<path d="M126.58 76.8499H125.04V68.1299H126.58V76.8499Z" fill="#0F2AA8"/>
<path d="M139.96 76.8499H138.23L133.68 70.4999V76.8499H132.14V68.1299H133.87L138.42 74.4799V68.1299H139.96V76.8499Z" fill="#0F2AA8"/>
<path d="M145.52 76.8499V68.1299H151.05V69.4799H147.05V71.7799H150.81V73.1199H147.05V75.4999H151.1V76.8499H145.51H145.52Z" fill="#0F2AA8"/>
<path d="M156.61 76.8499V68.1299H162.14V69.4799H158.14V71.7799H161.9V73.1199H158.14V75.4999H162.19V76.8499H156.6H156.61Z" fill="#0F2AA8"/>
<path d="M174.51 76.8499H172.81L170.9 73.5699H169.25V76.8499H167.71V68.1299H170.93C171.61 68.1299 172.19 68.2399 172.67 68.4599C173.15 68.6799 173.52 68.9899 173.78 69.3899C174.04 69.7899 174.17 70.2799 174.17 70.8499C174.17 71.4499 174.02 71.9699 173.72 72.3899C173.42 72.8099 173 73.1199 172.45 73.3099L174.51 76.8499ZM169.24 72.3099H170.81C171.37 72.3099 171.81 72.1899 172.12 71.9399C172.43 71.6899 172.59 71.3399 172.59 70.8899C172.59 70.4399 172.43 70.0899 172.12 69.8399C171.81 69.5899 171.37 69.4699 170.81 69.4699H169.24V72.3099Z" fill="#0F2AA8"/>
<path d="M181.14 76.8499H179.6V68.1299H181.14V76.8499Z" fill="#0F2AA8"/>
<path d="M194.52 76.8499H192.79L188.24 70.4999V76.8499H186.7V68.1299H188.43L192.98 74.4799V68.1299H194.52V76.8499Z" fill="#0F2AA8"/>
<path d="M206.49 70.1599C206.21 69.8799 205.89 69.6699 205.5 69.5299C205.11 69.3899 204.71 69.3099 204.28 69.3099C203.85 69.3099 203.44 69.3899 203.08 69.5399C202.72 69.6899 202.4 69.9099 202.14 70.1899C201.88 70.4699 201.67 70.7999 201.53 71.1899C201.39 71.5799 201.32 71.9999 201.32 72.4699C201.32 72.9399 201.39 73.3799 201.54 73.7699C201.69 74.1599 201.89 74.4999 202.16 74.7899C202.43 75.0799 202.74 75.2999 203.11 75.4499C203.48 75.5999 203.88 75.6799 204.31 75.6799C204.69 75.6799 205.04 75.6199 205.36 75.4999C205.68 75.3799 205.96 75.2099 206.2 74.9899C206.44 74.7699 206.64 74.4999 206.8 74.1799C206.96 73.8699 207.06 73.5199 207.11 73.1299H204.35V71.9399H208.46L208.5 72.5199C208.5 73.1799 208.4 73.7899 208.19 74.3399C207.99 74.8899 207.7 75.3599 207.32 75.7599C206.94 76.1599 206.5 76.4699 205.98 76.6899C205.46 76.9099 204.89 77.0199 204.27 77.0199C203.65 77.0199 203.03 76.9099 202.48 76.6799C201.93 76.4499 201.45 76.1299 201.04 75.7199C200.63 75.3099 200.31 74.8299 200.09 74.2799C199.86 73.7299 199.75 73.1299 199.75 72.4799C199.75 71.8299 199.86 71.2399 200.09 70.6899C200.32 70.1399 200.63 69.6599 201.04 69.2399C201.45 68.8199 201.92 68.5099 202.47 68.2799C203.02 68.0499 203.61 67.9399 204.25 67.9399C204.89 67.9399 205.44 68.0399 206 68.2499C206.56 68.4599 207.05 68.7599 207.49 69.1499L206.49 70.1399V70.1599Z" fill="#0F2AA8"/>
</g>
<defs>
<clipPath id="clip0_530_42170">
<rect width="255.64" height="77.02" fill="white"/>
</clipPath>
</defs>
</svg>
